<svg width="47" height="46" viewBox="0 0 47 46" fill="none" xmlns="http://www.w3.org/2000/svg">
<path d="M23.5 46C36.2025 46 46.5 35.7025 46.5 23C46.5 10.2975 36.2025 0 23.5 0C10.7975 0 0.5 10.2975 0.5 23C0.5 35.7025 10.7975 46 23.5 46Z" fill="#EA7730"/>
<path d="M31.8088 31.5022C31.6266 31.8135 31.3283 32.0399 30.9794 32.1315C30.6305 32.2231 30.2595 32.1726 29.9479 31.9909C26.3698 29.9 22.2376 29.5655 19.3992 29.6387C17.5555 29.6859 15.7218 29.9277 13.9289 30.36C13.5951 30.4191 13.2512 30.3516 12.9646 30.1706C12.6779 29.9896 12.4691 29.7082 12.3789 29.3815C12.2887 29.0547 12.3237 28.706 12.4769 28.4036C12.6301 28.1013 12.8907 27.8669 13.2075 27.7464C15.1828 27.2554 17.2052 26.9785 19.2398 26.9205C21.1869 26.8486 23.136 26.9897 25.0525 27.3413C27.2588 27.7406 29.3804 28.515 31.3252 29.6308C31.4806 29.7212 31.6165 29.8416 31.7251 29.9848C31.8336 30.1281 31.9127 30.2915 31.9577 30.4656C32.0026 30.6396 32.0126 30.8209 31.9871 30.9988C31.9615 31.1767 31.9009 31.3478 31.8088 31.5022Z" fill="black"/>
<path d="M34.3388 26.2462C34.1969 26.4898 33.9936 26.6919 33.7491 26.8322C33.5046 26.9726 33.2276 27.0463 32.9457 27.046C32.6597 27.0464 32.3789 26.9696 32.1329 26.8238C27.8961 24.3487 23.0034 23.9488 19.6397 24.0533C17.4558 24.1086 15.2839 24.395 13.1605 24.908C12.7543 25.0036 12.3268 24.938 11.9679 24.7251C11.6091 24.5121 11.3467 24.1683 11.2361 23.7659C11.1254 23.3635 11.175 22.9339 11.3745 22.5674C11.574 22.2009 11.9078 21.9259 12.3058 21.8004C14.6459 21.2213 17.0417 20.8971 19.4515 20.8333C21.7585 20.7445 24.0683 20.912 26.3384 21.3325C28.9496 21.8059 31.4602 22.7235 33.7612 24.0455C34.1288 24.2614 34.396 24.6142 34.5042 25.0266C34.6125 25.439 34.553 25.8775 34.3388 26.2462Z" fill="black"/>
<path d="M37.6136 20.4883C37.4829 20.7128 37.3091 20.9093 37.1023 21.0665C36.8954 21.2237 36.6595 21.3385 36.4082 21.4043C36.1569 21.4701 35.895 21.4857 35.6377 21.45C35.3803 21.4144 35.1325 21.3283 34.9085 21.1966C24.8356 15.3107 11.77 18.8104 11.6472 18.8443C11.3933 18.9248 11.1257 18.9531 10.8606 18.9277C10.5955 18.9022 10.3382 18.8235 10.1042 18.6962C9.87028 18.5689 9.66442 18.3957 9.49901 18.1869C9.33359 17.9782 9.21203 17.7382 9.14161 17.4813C9.07119 17.2244 9.05335 16.956 9.08917 16.6921C9.125 16.4282 9.21374 16.1742 9.35008 15.9454C9.48643 15.7166 9.66756 15.5177 9.88263 15.3605C10.0977 15.2034 10.3423 15.0914 10.6017 15.0311C13.4651 14.3253 16.3962 13.9301 19.3443 13.8523C22.1731 13.7469 25.0049 13.952 27.789 14.4639C30.9907 15.0396 34.0705 16.1587 36.8949 17.7728C37.1212 17.9031 37.3194 18.077 37.4781 18.2843C37.6369 18.4917 37.753 18.7284 37.8198 18.9809C37.8866 19.2333 37.9028 19.4965 37.8674 19.7552C37.832 20.0139 37.7458 20.2631 37.6136 20.4883Z" fill="black"/>
</svg>
